<svg xmlns="http://www.w3.org/2000/svg" version="1.1" width="128px" height="128px" style="shape-rendering:geometricPrecision; text-rendering:geometricPrecision; image-rendering:optimizeQuality; fill-rule:evenodd; clip-rule:evenodd" xmlns:xlink="http://www.w3.org/1999/xlink">
    <g>
        <path style="opacity:0.95" fill="#4282c4" d="M 36.5,-0.5 C 54.5,-0.5 72.5,-0.5 90.5,-0.5C 101.17,5.84852 105.17,15.3485 102.5,28C 102.167,32.8333 101.833,37.6667 101.5,42.5C 98.7489,40.7073 95.9156,39.0406 93,37.5C 92.6667,29.5 92.3333,21.5 92,13.5C 90.7727,11.2739 88.9393,9.77385 86.5,9C 71.8371,8.50009 57.1705,8.33342 42.5,8.5C 42.6665,18.1724 42.4998,27.8391 42,37.5C 40.5,39 39,40.5 37.5,42C 27.8391,42.4998 18.1724,42.6665 8.5,42.5C 8.02965,66.5653 8.52965,90.5653 10,114.5C 11.3189,116.487 13.1523,117.654 15.5,118C 39.1667,118.667 62.8333,118.667 86.5,118C 88.01,117.15 89.51,116.317 91,115.5C 93.8333,117 96,119.167 97.5,122C 95.4915,124.327 93.1582,126.16 90.5,127.5C 64.1667,127.5 37.8333,127.5 11.5,127.5C 5.83333,125.167 1.83333,121.167 -0.5,115.5C -0.5,89.1667 -0.5,62.8333 -0.5,36.5C 12.1667,24.5 24.5,12.1667 36.5,-0.5 Z"/></g>
    <g>
        <path style="opacity:0.91" fill="#282e6c" d="M 127.5,114.5 C 127.5,117.167 127.5,119.833 127.5,122.5C 126.167,124.5 124.5,126.167 122.5,127.5C 119.833,127.5 117.167,127.5 114.5,127.5C 107.229,120.73 100.062,113.73 93,106.5C 72.5773,115.233 56.5773,110.233 45,91.5C 37.4243,70.2166 43.591,54.3833 63.5,44C 86.7103,37.8525 102.21,46.0192 110,68.5C 111.387,77.0862 110.22,85.2528 106.5,93C 113.73,100.062 120.73,107.229 127.5,114.5 Z M 70.5,51.5 C 88.3735,50.5918 98.7068,58.9251 101.5,76.5C 98.1417,95.1719 87.1417,103.005 68.5,100C 51.4859,91.4673 47.3192,78.634 56,61.5C 59.9775,56.7741 64.8108,53.4408 70.5,51.5 Z"/></g>
    <g>
        <path style="opacity:0.946" fill="#a6cbe5" d="M 72.5,58.5 C 89.4493,59.2866 95.9493,67.9533 92,84.5C 86.9551,92.409 79.7884,95.2423 70.5,93C 60.065,88.2949 56.565,80.4615 60,69.5C 62.5048,63.8218 66.6714,60.1552 72.5,58.5 Z"/></g>
</svg>
